# xmcd
#
# Track frame offsets:
#	150
#	16832
#	34905
#	58426
#	74700
#	91818
#	116918
#	137856
#	155294
#	173112
#	193202
#	220970
#	250481
#	273207
#
# Disc length: 4155 seconds
#
# Revision: 1
# Processed by: cddbd v1.5.2PL0 Copyright (c) Steve Scherf et al.
# Submitted via: audiograbber 1.83.01
#
DISCID=d810390e
DTITLE=Wee Willie Walker and The Greaseland All Stars - Live Notodden Blues Festi
DTITLE=val
DYEAR=2016
DGENRE=Blues
TTITLE0=Intro (Memphis Troll Stew)
TTITLE1=Between The Lines
TTITLE2=Is That It
TTITLE3=You Name It, I've Had It
TTITLE4=Ticket To Ride
TTITLE5=Litle Red Rooster
TTITLE6=Funky Way
TTITLE7=There Goes My Used To Be
TTITLE8=I Ain't Gonna Cheat On You No More
TTITLE9=I've Been Watching You
TTITLE10=Can I Change My Mind
TTITLE11=A Change Is Gonna Come
TTITLE12=A Lucky Loser
TTITLE13=Help!
EXTD=
EXTT0=
EXTT1=
EXTT2=
EXTT3=
EXTT4=
EXTT5=
EXTT6=
EXTT7=
EXTT8=
EXTT9=
EXTT10=
EXTT11=
EXTT12=
EXTT13=
PLAYORDER=
